<?xml version="1.0" encoding="utf-8"?>
<!-- Generator: Adobe Illustrator 25.2.0, SVG Export Plug-In . SVG Version: 6.00 Build 0)  -->
<svg version="1.1" id="Layer_1" xmlns="http://www.w3.org/2000/svg" xmlns:xlink="http://www.w3.org/1999/xlink" x="0px" y="0px"
	 viewBox="0 0 40 40" style="enable-background:new 0 0 40 40;" xml:space="preserve">
<style type="text/css">
	.st0{fill:#F2D2BD;}
</style>
<g>
	<path class="st0" d="M9.95,2.86c-4.49,0-8.56,2.25-8.56,7.7c0,4.38,3.53,4.7,3.53,8.98c0,3.85-3.1,9.63-4.92,12.62l4.6,3
		c0,0,13.04-14.01,13.04-23.96C17.65,5,14.55,2.86,9.95,2.86z"/>
	<path class="st0" d="M32.19,2.86c-4.38,0-8.45,2.25-8.45,7.7c0,4.38,3.53,4.7,3.53,8.98c0,3.85-3.21,9.63-4.92,12.62l4.49,3
		c0,0,13.15-14.01,13.15-23.96C40,5,36.79,2.86,32.19,2.86z"/>
</g>
</svg>
